<svg version="1.1" id="Layer_1" xmlns="http://www.w3.org/2000/svg" xmlns:xlink="http://www.w3.org/1999/xlink" x="0px" y="0px"
	 width="100%" viewBox="0 0 2048 2048" enable-background="new 0 0 2048 2048" xml:space="preserve">
<path fill="#6F6F6F" opacity="1.000000" stroke="none" 
	d="
M961.000000,0.999989 
	C1003.354248,1.000000 1045.708496,1.000000 1088.451904,1.427553 
	C1089.520752,2.224283 1090.178223,2.864587 1090.883423,2.922424 
	C1103.871460,3.987586 1116.878784,4.836220 1129.853882,6.035244 
	C1142.474487,7.201499 1155.129761,8.274461 1167.650879,10.172221 
	C1186.945679,13.096635 1206.198608,16.381512 1225.362915,20.065861 
	C1261.451904,27.003946 1297.200195,35.628880 1332.014893,47.318825 
	C1364.045166,58.073799 1395.652832,70.189224 1427.048706,82.704300 
	C1463.015381,97.041489 1497.653809,114.340332 1530.953369,134.102158 
	C1555.355713,148.584015 1579.745239,163.220383 1603.097290,179.302689 
	C1627.246948,195.934372 1650.500122,213.938583 1673.461304,232.202515 
	C1691.236572,246.341278 1708.186401,261.551880 1725.060425,276.776581 
	C1735.238159,285.959412 1744.759521,295.898712 1754.235718,305.822968 
	C1768.180542,320.427094 1782.167480,335.017090 1795.493774,350.178162 
	C1808.656738,365.153412 1821.217407,380.673248 1833.692871,396.234253 
	C1856.948242,425.240906 1877.737549,455.977814 1897.318604,487.569183 
	C1915.266602,516.525879 1932.039917,546.119263 1946.416748,577.006470 
	C1956.480713,598.627686 1966.409058,620.333862 1975.589355,642.339478 
	C1990.392212,677.823120 2002.633545,714.262451 2012.539795,751.391541 
	C2019.210327,776.392029 2025.005249,801.677490 2029.910889,827.082825 
	C2034.787598,852.338806 2038.485840,877.847473 2041.895874,903.352966 
	C2044.295898,921.302795 2045.316650,939.435913 2047.074707,957.475464 
	C2047.193970,958.701233 2048.334473,959.827515 2049.000000,961.000000 
	C2049.000000,1003.354248 2049.000000,1045.708496 2048.572754,1088.444458 
	C2047.790894,1089.340088 2047.168579,1089.829834 2047.119629,1090.371338 
	C2045.381592,1109.587769 2043.885742,1128.828125 2041.941162,1148.023193 
	C2040.582031,1161.438232 2039.056641,1174.865845 2036.816284,1188.154785 
	C2033.985229,1204.947388 2030.973877,1221.756714 2026.932129,1238.287964 
	C2019.187622,1269.963989 2011.441895,1301.677856 2002.268799,1332.957153 
	C1989.781738,1375.536377 1973.567505,1416.868164 1954.366699,1456.835815 
	C1939.541992,1487.694214 1923.606079,1518.120605 1906.340210,1547.673584 
	C1891.200806,1573.586914 1873.994507,1598.345947 1856.807861,1622.991821 
	C1844.774048,1640.248535 1831.491943,1656.662109 1818.287598,1673.066284 
	C1808.263916,1685.519043 1797.775513,1697.630371 1786.968506,1709.411743 
	C1773.231445,1724.387085 1759.287842,1739.203613 1744.834839,1753.482910 
	C1730.099976,1768.040527 1714.850830,1782.099121 1699.430786,1795.934692 
	C1686.558228,1807.484497 1673.591553,1819.028931 1659.812622,1829.446289 
	C1637.690186,1846.171753 1615.426392,1862.832275 1592.187500,1877.927124 
	C1564.498413,1895.912842 1536.199951,1913.094604 1507.280396,1929.016846 
	C1475.273438,1946.638794 1442.057617,1961.965088 1408.062744,1975.540894 
	C1372.389160,1989.786987 1336.204712,2002.536011 1299.069336,2012.305176 
	C1273.895630,2018.927734 1248.510864,2024.935425 1222.964233,2029.899414 
	C1197.703613,2034.807861 1172.177979,2038.483276 1146.661011,2041.894775 
	C1128.706909,2044.295166 1110.569336,2045.316162 1092.525757,2047.074463 
	C1091.299561,2047.193970 1090.172974,2048.334473 1089.000000,2049.000000 
	C1046.645752,2049.000000 1004.291565,2049.000000 961.546143,2048.572266 
	C960.309875,2047.768799 959.486206,2047.128540 958.616333,2047.057861 
	C949.568542,2046.323242 940.489563,2045.907227 931.465210,2044.963501 
	C913.964539,2043.133667 896.437073,2041.414917 879.024841,2038.923096 
	C858.578064,2035.996826 837.991211,2033.372559 817.914856,2028.689575 
	C784.893250,2020.987183 752.044922,2012.384766 719.473938,2002.951904 
	C686.518799,1993.408081 654.314697,1981.505615 622.963196,1967.457153 
	C605.123779,1959.463501 587.235413,1951.562378 569.600281,1943.135620 
	C558.037476,1937.610596 546.776733,1931.420044 535.580627,1925.169312 
	C520.265564,1916.618530 504.887207,1908.136230 489.986694,1898.897705 
	C458.853882,1879.594727 428.248840,1859.462402 399.772644,1836.327515 
	C378.685699,1819.195679 357.497955,1802.156250 337.049774,1784.281006 
	C323.103241,1772.089111 310.013062,1758.855469 297.155090,1745.495728 
	C280.269135,1727.950806 263.719360,1710.062622 247.536667,1691.867065 
	C235.720596,1678.581299 224.161057,1664.987305 213.509079,1650.765381 
	C198.364288,1630.545166 183.648819,1609.959473 169.696533,1588.902832 
	C156.464157,1568.932495 143.928513,1548.452271 132.057404,1527.642578 
	C121.469460,1509.082397 111.612221,1490.046143 102.511665,1470.711914 
	C90.820229,1445.873047 79.081551,1420.950195 69.420715,1395.289062 
	C57.992210,1364.932373 47.899647,1333.999390 38.833920,1302.848999 
	C31.061480,1276.142334 24.723368,1248.941895 19.289438,1221.653442 
	C14.422386,1197.212036 11.270410,1172.402222 8.087388,1147.661499 
	C5.777112,1129.704590 4.683720,1111.592041 2.925963,1093.560791 
	C2.805309,1092.323120 1.665719,1091.184570 0.999998,1090.000000 
	C1.000000,1046.979126 1.000000,1003.958191 1.427975,960.525635 
	C2.231612,959.269897 2.867072,958.448853 2.944371,957.578247 
	C4.329453,941.978943 5.398479,926.347290 7.047507,910.776855 
	C8.760192,894.605469 10.465451,878.398376 13.173605,862.375793 
	C16.997108,839.754333 20.978065,817.108154 26.256113,794.795288 
	C35.615700,755.227661 46.979500,716.223938 60.793419,677.910400 
	C73.976112,641.347534 89.138374,605.662109 106.300743,570.854736 
	C116.407845,550.356323 127.476784,530.289490 138.982941,510.535248 
	C150.880096,490.109680 162.874527,469.618225 176.548218,450.379364 
	C195.959106,423.068298 216.478806,396.503510 237.420532,370.336761 
	C251.549637,352.682434 267.054871,336.111206 282.276581,319.357208 
	C289.948334,310.913147 298.237305,303.013977 306.464935,295.094696 
	C317.815979,284.169006 329.117188,273.168610 340.904114,262.724304 
	C356.824493,248.617432 372.699951,234.382828 389.480865,221.343536 
	C410.610474,204.925156 432.351471,189.248184 454.369476,174.033966 
	C469.879242,163.316910 486.046265,153.484085 502.358368,144.011688 
	C523.955627,131.470230 545.802734,119.328384 567.889648,107.672684 
	C580.948914,100.781029 594.506287,94.747078 608.143799,89.056122 
	C632.853516,78.744705 657.539001,68.286545 682.688721,59.137867 
	C725.764404,43.468258 769.855225,31.044874 814.834045,22.143759 
	C838.819702,17.397093 862.988037,13.374265 887.223206,10.144998 
	C910.712830,7.015060 934.395935,5.341579 957.983215,2.923148 
	C959.043396,2.814455 959.996826,1.664786 961.000000,0.999989 
M1952.875854,789.755188 
	C1951.602051,785.519287 1950.140259,781.329712 1949.084473,777.040100 
	C1940.445190,741.942383 1928.761963,707.808716 1915.484131,674.264648 
	C1902.758789,642.116028 1889.044556,610.342102 1871.963257,580.187561 
	C1858.276978,556.026733 1845.174072,531.467529 1830.177124,508.136169 
	C1815.364380,485.091309 1798.996216,462.987152 1782.386475,441.173859 
	C1767.720825,421.913788 1752.084839,403.362793 1736.298218,384.996429 
	C1725.812988,372.797882 1714.551758,361.233063 1703.187256,349.833893 
	C1693.348389,339.965240 1683.085693,330.490234 1672.633301,321.268738 
	C1656.176392,306.750122 1639.806641,292.083588 1622.655151,278.414459 
	C1603.766724,263.361084 1584.634399,248.462036 1564.524048,235.131561 
	C1538.542969,217.909592 1511.828613,201.713242 1484.781494,186.206375 
	C1464.678223,174.680557 1443.863647,164.252869 1422.779175,154.620163 
	C1401.163696,144.744812 1379.086548,135.738419 1356.750488,127.619682 
	C1332.105469,118.661667 1307.153564,110.380592 1281.932129,103.225853 
	C1258.939941,96.703491 1235.510742,91.583214 1212.083252,86.774948 
	C1191.359985,82.521706 1170.423096,79.216164 1149.487305,76.123489 
	C1134.354248,73.888031 1119.098755,72.288483 1103.843018,71.125610 
	C1085.047119,69.692886 1066.196655,68.242729 1047.365479,68.185898 
	C1021.470032,68.107742 995.562744,69.116714 969.676147,70.081894 
	C956.664124,70.567039 943.650208,71.648483 930.702515,73.060089 
	C912.251221,75.071701 893.767761,77.076805 875.466187,80.101852 
	C852.016174,83.977890 828.558777,88.113243 805.417419,93.484688 
	C766.914001,102.421883 728.885010,113.256271 692.160278,128.042679 
	C664.277771,139.268890 636.474731,150.763077 609.115051,163.191910 
	C591.446533,171.218307 574.442383,180.792282 557.507202,190.324112 
	C540.474304,199.910919 523.618896,209.873779 507.175323,220.434219 
	C473.240967,242.227570 440.584747,265.818573 410.172485,292.382629 
	C395.254730,305.412781 380.378021,318.497253 365.760468,331.860992 
	C358.093170,338.870605 350.915619,346.430542 343.712402,353.929718 
	C332.911469,365.174377 322.026886,376.355988 311.646729,387.982971 
	C299.352295,401.754242 287.108643,415.615295 275.640839,430.070374 
	C254.785812,456.358063 235.241623,483.607117 217.306335,512.015930 
	C196.196671,545.452942 176.567474,579.697144 160.173645,615.689636 
	C150.567368,636.780151 141.561813,658.159546 132.835175,679.632202 
	C115.748032,721.676636 102.812050,765.014343 92.795326,809.283875 
	C86.273659,838.106750 80.374352,867.009583 76.980431,896.377075 
	C74.542747,917.470398 72.028343,938.562378 70.116325,959.706299 
	C68.880730,973.369995 68.210388,987.123352 68.115318,1000.842224 
	C67.988701,1019.111938 68.510864,1037.391846 69.052216,1055.658569 
	C69.454132,1069.220337 70.156029,1082.779541 71.049789,1096.318359 
	C71.766113,1107.169189 72.664871,1118.026489 74.027374,1128.812134 
	C76.456116,1148.038086 78.854515,1167.286865 82.086830,1186.386963 
	C85.421654,1206.092896 89.255234,1225.743042 93.722443,1245.222290 
	C102.533127,1283.641235 113.479607,1321.489746 128.100586,1358.120239 
	C139.368149,1386.349243 151.199631,1414.382080 163.775238,1442.049927 
	C171.589996,1459.243408 180.910919,1475.790405 190.194260,1492.267822 
	C199.800308,1509.318115 209.755692,1526.203857 220.306381,1542.682617 
	C241.976532,1576.528442 265.539062,1609.035522 291.947357,1639.378052 
	C306.169861,1655.719482 320.732513,1671.769775 335.363220,1687.748535 
	C341.588715,1694.547729 348.327728,1700.882690 354.930634,1707.328979 
	C362.170685,1714.397461 369.310455,1721.590332 376.871338,1728.303955 
	C391.926086,1741.671753 406.880249,1755.193481 422.540985,1767.827393 
	C440.173859,1782.052002 458.275055,1795.734619 476.648346,1808.993774 
	C504.653198,1829.203491 534.055054,1847.286255 564.434387,1863.699951 
	C581.382019,1872.856812 598.601135,1881.544800 615.966309,1889.885376 
	C631.967896,1897.570923 648.099976,1905.082520 664.579956,1911.653809 
	C695.830383,1924.114990 727.549011,1935.237061 759.936096,1944.557739 
	C801.321533,1956.468018 843.291565,1965.463867 885.819519,1971.852905 
	C905.833557,1974.859619 925.988831,1977.157104 946.158447,1978.832397 
	C966.270203,1980.502686 986.477417,1981.742798 1006.647522,1981.813965 
	C1033.033081,1981.906982 1059.424561,1980.701416 1085.811157,1979.974365 
	C1091.927368,1979.806030 1098.064331,1979.585815 1104.140015,1978.918457 
	C1120.822266,1977.085815 1137.520508,1975.306763 1154.131470,1972.939575 
	C1173.297241,1970.208130 1192.557373,1967.702148 1211.449951,1963.595459 
	C1238.029907,1957.817627 1264.362793,1950.863281 1290.704712,1944.039185 
	C1330.355835,1933.767212 1368.558105,1919.242310 1405.985962,1902.819092 
	C1428.716187,1892.844971 1450.955322,1881.682007 1473.030151,1870.306519 
	C1489.533813,1861.802002 1505.799561,1852.702026 1521.494751,1842.795410 
	C1543.849731,1828.685425 1565.900879,1814.042114 1587.510620,1798.816040 
	C1619.653564,1776.168091 1649.788086,1750.932007 1678.334717,1723.927124 
	C1695.916260,1707.294922 1712.719604,1689.797119 1729.230347,1672.089478 
	C1742.609619,1657.740356 1755.580200,1642.932251 1767.742676,1627.545654 
	C1784.148193,1606.791504 1800.047729,1585.601807 1815.364258,1564.030884 
	C1837.852661,1532.359497 1857.646118,1498.945312 1875.095947,1464.273682 
	C1888.118774,1438.398193 1900.734131,1412.201904 1911.482666,1385.329224 
	C1923.036255,1356.443848 1932.732788,1326.773926 1942.274414,1297.135376 
	C1955.473999,1256.134644 1964.109985,1213.986084 1970.794556,1171.492920 
	C1974.321167,1149.073975 1976.865967,1126.460327 1978.813110,1103.845093 
	C1980.601196,1083.075928 1981.409424,1062.195801 1981.864746,1041.347290 
	C1982.212646,1025.419067 1981.486084,1009.458923 1980.955566,993.522339 
	C1980.526611,980.633362 1979.971558,967.734924 1978.941895,954.883118 
	C1977.573486,937.799805 1975.984497,920.722351 1973.944214,903.707825 
	C1971.950684,887.082031 1969.864624,870.425842 1966.744629,853.986938 
	C1962.713379,832.747437 1957.615356,811.710266 1952.875854,789.755188 
z"/>
<path fill="#000000" opacity="1.000000" stroke="none" 
	d="
M1089.468750,2049.000000 
	C1090.172974,2048.334473 1091.299561,2047.193970 1092.525757,2047.074463 
	C1110.569336,2045.316162 1128.706909,2044.295166 1146.661011,2041.894775 
	C1172.177979,2038.483276 1197.703613,2034.807861 1222.964233,2029.899414 
	C1248.510864,2024.935425 1273.895630,2018.927734 1299.069336,2012.305176 
	C1336.204712,2002.536011 1372.389160,1989.786987 1408.062744,1975.540894 
	C1442.057617,1961.965088 1475.273438,1946.638794 1507.280396,1929.016846 
	C1536.199951,1913.094604 1564.498413,1895.912842 1592.187500,1877.927124 
	C1615.426392,1862.832275 1637.690186,1846.171753 1659.812622,1829.446289 
	C1673.591553,1819.028931 1686.558228,1807.484497 1699.430786,1795.934692 
	C1714.850830,1782.099121 1730.099976,1768.040527 1744.834839,1753.482910 
	C1759.287842,1739.203613 1773.231445,1724.387085 1786.968506,1709.411743 
	C1797.775513,1697.630371 1808.263916,1685.519043 1818.287598,1673.066284 
	C1831.491943,1656.662109 1844.774048,1640.248535 1856.807861,1622.991821 
	C1873.994507,1598.345947 1891.200806,1573.586914 1906.340210,1547.673584 
	C1923.606079,1518.120605 1939.541992,1487.694214 1954.366699,1456.835815 
	C1973.567505,1416.868164 1989.781738,1375.536377 2002.268799,1332.957153 
	C2011.441895,1301.677856 2019.187622,1269.963989 2026.932129,1238.287964 
	C2030.973877,1221.756714 2033.985229,1204.947388 2036.816284,1188.154785 
	C2039.056641,1174.865845 2040.582031,1161.438232 2041.941162,1148.023193 
	C2043.885742,1128.828125 2045.381592,1109.587769 2047.119629,1090.371338 
	C2047.168579,1089.829834 2047.790894,1089.340088 2048.572754,1088.913086 
	C2049.000000,1408.927124 2049.000000,1728.854126 2049.000000,2049.000000 
	C1729.312500,2049.000000 1409.624878,2049.000000 1089.468750,2049.000000 
z"/>
<path fill="#000000" opacity="1.000000" stroke="none" 
	d="
M0.999998,1090.468628 
	C1.665719,1091.184570 2.805309,1092.323120 2.925963,1093.560791 
	C4.683720,1111.592041 5.777112,1129.704590 8.087388,1147.661499 
	C11.270410,1172.402222 14.422386,1197.212036 19.289438,1221.653442 
	C24.723368,1248.941895 31.061480,1276.142334 38.833920,1302.848999 
	C47.899647,1333.999390 57.992210,1364.932373 69.420715,1395.289062 
	C79.081551,1420.950195 90.820229,1445.873047 102.511665,1470.711914 
	C111.612221,1490.046143 121.469460,1509.082397 132.057404,1527.642578 
	C143.928513,1548.452271 156.464157,1568.932495 169.696533,1588.902832 
	C183.648819,1609.959473 198.364288,1630.545166 213.509079,1650.765381 
	C224.161057,1664.987305 235.720596,1678.581299 247.536667,1691.867065 
	C263.719360,1710.062622 280.269135,1727.950806 297.155090,1745.495728 
	C310.013062,1758.855469 323.103241,1772.089111 337.049774,1784.281006 
	C357.497955,1802.156250 378.685699,1819.195679 399.772644,1836.327515 
	C428.248840,1859.462402 458.853882,1879.594727 489.986694,1898.897705 
	C504.887207,1908.136230 520.265564,1916.618530 535.580627,1925.169312 
	C546.776733,1931.420044 558.037476,1937.610596 569.600281,1943.135620 
	C587.235413,1951.562378 605.123779,1959.463501 622.963196,1967.457153 
	C654.314697,1981.505615 686.518799,1993.408081 719.473938,2002.951904 
	C752.044922,2012.384766 784.893250,2020.987183 817.914856,2028.689575 
	C837.991211,2033.372559 858.578064,2035.996826 879.024841,2038.923096 
	C896.437073,2041.414917 913.964539,2043.133667 931.465210,2044.963501 
	C940.489563,2045.907227 949.568542,2046.323242 958.616333,2047.057861 
	C959.486206,2047.128540 960.309875,2047.768799 961.077515,2048.572266 
	C641.072937,2049.000000 321.145874,2049.000000 1.000000,2049.000000 
	C1.000000,1729.645752 1.000000,1410.291504 0.999998,1090.468628 
z"/>
<path fill="#000000" opacity="1.000000" stroke="none" 
	d="
M960.531372,0.999989 
	C959.996826,1.664786 959.043396,2.814455 957.983215,2.923148 
	C934.395935,5.341579 910.712830,7.015060 887.223206,10.144998 
	C862.988037,13.374265 838.819702,17.397093 814.834045,22.143759 
	C769.855225,31.044874 725.764404,43.468258 682.688721,59.137867 
	C657.539001,68.286545 632.853516,78.744705 608.143799,89.056122 
	C594.506287,94.747078 580.948914,100.781029 567.889648,107.672684 
	C545.802734,119.328384 523.955627,131.470230 502.358368,144.011688 
	C486.046265,153.484085 469.879242,163.316910 454.369476,174.033966 
	C432.351471,189.248184 410.610474,204.925156 389.480865,221.343536 
	C372.699951,234.382828 356.824493,248.617432 340.904114,262.724304 
	C329.117188,273.168610 317.815979,284.169006 306.464935,295.094696 
	C298.237305,303.013977 289.948334,310.913147 282.276581,319.357208 
	C267.054871,336.111206 251.549637,352.682434 237.420532,370.336761 
	C216.478806,396.503510 195.959106,423.068298 176.548218,450.379364 
	C162.874527,469.618225 150.880096,490.109680 138.982941,510.535248 
	C127.476784,530.289490 116.407845,550.356323 106.300743,570.854736 
	C89.138374,605.662109 73.976112,641.347534 60.793419,677.910400 
	C46.979500,716.223938 35.615700,755.227661 26.256113,794.795288 
	C20.978065,817.108154 16.997108,839.754333 13.173605,862.375793 
	C10.465451,878.398376 8.760192,894.605469 7.047507,910.776855 
	C5.398479,926.347290 4.329453,941.978943 2.944371,957.578247 
	C2.867072,958.448853 2.231612,959.269897 1.427975,960.057007 
	C1.000000,640.406189 1.000000,320.812378 1.000000,1.000000 
	C320.687531,1.000000 640.375122,1.000000 960.531372,0.999989 
z"/>
<path fill="#000000" opacity="1.000000" stroke="none" 
	d="
M2049.000000,960.531372 
	C2048.334473,959.827515 2047.193970,958.701233 2047.074707,957.475464 
	C2045.316650,939.435913 2044.295898,921.302795 2041.895874,903.352966 
	C2038.485840,877.847473 2034.787598,852.338806 2029.910889,827.082825 
	C2025.005249,801.677490 2019.210327,776.392029 2012.539795,751.391541 
	C2002.633545,714.262451 1990.392212,677.823120 1975.589355,642.339478 
	C1966.409058,620.333862 1956.480713,598.627686 1946.416748,577.006470 
	C1932.039917,546.119263 1915.266602,516.525879 1897.318604,487.569183 
	C1877.737549,455.977814 1856.948242,425.240906 1833.692871,396.234253 
	C1821.217407,380.673248 1808.656738,365.153412 1795.493774,350.178162 
	C1782.167480,335.017090 1768.180542,320.427094 1754.235718,305.822968 
	C1744.759521,295.898712 1735.238159,285.959412 1725.060425,276.776581 
	C1708.186401,261.551880 1691.236572,246.341278 1673.461304,232.202515 
	C1650.500122,213.938583 1627.246948,195.934372 1603.097290,179.302689 
	C1579.745239,163.220383 1555.355713,148.584015 1530.953369,134.102158 
	C1497.653809,114.340332 1463.015381,97.041489 1427.048706,82.704300 
	C1395.652832,70.189224 1364.045166,58.073799 1332.014893,47.318825 
	C1297.200195,35.628880 1261.451904,27.003946 1225.362915,20.065861 
	C1206.198608,16.381512 1186.945679,13.096635 1167.650879,10.172221 
	C1155.129761,8.274461 1142.474487,7.201499 1129.853882,6.035244 
	C1116.878784,4.836220 1103.871460,3.987586 1090.883423,2.922424 
	C1090.178223,2.864587 1089.520752,2.224283 1088.920532,1.427553 
	C1408.927124,1.000000 1728.854126,1.000000 2049.000000,1.000000 
	C2049.000000,320.687531 2049.000000,640.375122 2049.000000,960.531372 
z"/>
<path fill="#000000" opacity="1.000000" stroke="none" 
	d="
M1952.926270,790.170593 
	C1957.615356,811.710266 1962.713379,832.747437 1966.744629,853.986938 
	C1969.864624,870.425842 1971.950684,887.082031 1973.944214,903.707825 
	C1975.984497,920.722351 1977.573486,937.799805 1978.941895,954.883118 
	C1979.971558,967.734924 1980.526611,980.633362 1980.955566,993.522339 
	C1981.486084,1009.458923 1982.212646,1025.419067 1981.864746,1041.347290 
	C1981.409424,1062.195801 1980.601196,1083.075928 1978.813110,1103.845093 
	C1976.865967,1126.460327 1974.321167,1149.073975 1970.794556,1171.492920 
	C1964.109985,1213.986084 1955.473999,1256.134644 1942.274414,1297.135376 
	C1932.732788,1326.773926 1923.036255,1356.443848 1911.482666,1385.329224 
	C1900.734131,1412.201904 1888.118774,1438.398193 1875.095947,1464.273682 
	C1857.646118,1498.945312 1837.852661,1532.359497 1815.364258,1564.030884 
	C1800.047729,1585.601807 1784.148193,1606.791504 1767.742676,1627.545654 
	C1755.580200,1642.932251 1742.609619,1657.740356 1729.230347,1672.089478 
	C1712.719604,1689.797119 1695.916260,1707.294922 1678.334717,1723.927124 
	C1649.788086,1750.932007 1619.653564,1776.168091 1587.510620,1798.816040 
	C1565.900879,1814.042114 1543.849731,1828.685425 1521.494751,1842.795410 
	C1505.799561,1852.702026 1489.533813,1861.802002 1473.030151,1870.306519 
	C1450.955322,1881.682007 1428.716187,1892.844971 1405.985962,1902.819092 
	C1368.558105,1919.242310 1330.355835,1933.767212 1290.704712,1944.039185 
	C1264.362793,1950.863281 1238.029907,1957.817627 1211.449951,1963.595459 
	C1192.557373,1967.702148 1173.297241,1970.208130 1154.131470,1972.939575 
	C1137.520508,1975.306763 1120.822266,1977.085815 1104.140015,1978.918457 
	C1098.064331,1979.585815 1091.927368,1979.806030 1085.811157,1979.974365 
	C1059.424561,1980.701416 1033.033081,1981.906982 1006.647522,1981.813965 
	C986.477417,1981.742798 966.270203,1980.502686 946.158447,1978.832397 
	C925.988831,1977.157104 905.833557,1974.859619 885.819519,1971.852905 
	C843.291565,1965.463867 801.321533,1956.468018 759.936096,1944.557739 
	C727.549011,1935.237061 695.830383,1924.114990 664.579956,1911.653809 
	C648.099976,1905.082520 631.967896,1897.570923 615.966309,1889.885376 
	C598.601135,1881.544800 581.382019,1872.856812 564.434387,1863.699951 
	C534.055054,1847.286255 504.653198,1829.203491 476.648346,1808.993774 
	C458.275055,1795.734619 440.173859,1782.052002 422.540985,1767.827393 
	C406.880249,1755.193481 391.926086,1741.671753 376.871338,1728.303955 
	C369.310455,1721.590332 362.170685,1714.397461 354.930634,1707.328979 
	C348.327728,1700.882690 341.588715,1694.547729 335.363220,1687.748535 
	C320.732513,1671.769775 306.169861,1655.719482 291.947357,1639.378052 
	C265.539062,1609.035522 241.976532,1576.528442 220.306381,1542.682617 
	C209.755692,1526.203857 199.800308,1509.318115 190.194260,1492.267822 
	C180.910919,1475.790405 171.589996,1459.243408 163.775238,1442.049927 
	C151.199631,1414.382080 139.368149,1386.349243 128.100586,1358.120239 
	C113.479607,1321.489746 102.533127,1283.641235 93.722443,1245.222290 
	C89.255234,1225.743042 85.421654,1206.092896 82.086830,1186.386963 
	C78.854515,1167.286865 76.456116,1148.038086 74.027374,1128.812134 
	C72.664871,1118.026489 71.766113,1107.169189 71.049789,1096.318359 
	C70.156029,1082.779541 69.454132,1069.220337 69.052216,1055.658569 
	C68.510864,1037.391846 67.988701,1019.111938 68.115318,1000.842224 
	C68.210388,987.123352 68.880730,973.369995 70.116325,959.706299 
	C72.028343,938.562378 74.542747,917.470398 76.980431,896.377075 
	C80.374352,867.009583 86.273659,838.106750 92.795326,809.283875 
	C102.812050,765.014343 115.748032,721.676636 132.835175,679.632202 
	C141.561813,658.159546 150.567368,636.780151 160.173645,615.689636 
	C176.567474,579.697144 196.196671,545.452942 217.306335,512.015930 
	C235.241623,483.607117 254.785812,456.358063 275.640839,430.070374 
	C287.108643,415.615295 299.352295,401.754242 311.646729,387.982971 
	C322.026886,376.355988 332.911469,365.174377 343.712402,353.929718 
	C350.915619,346.430542 358.093170,338.870605 365.760468,331.860992 
	C380.378021,318.497253 395.254730,305.412781 410.172485,292.382629 
	C440.584747,265.818573 473.240967,242.227570 507.175323,220.434219 
	C523.618896,209.873779 540.474304,199.910919 557.507202,190.324112 
	C574.442383,180.792282 591.446533,171.218307 609.115051,163.191910 
	C636.474731,150.763077 664.277771,139.268890 692.160278,128.042679 
	C728.885010,113.256271 766.914001,102.421883 805.417419,93.484688 
	C828.558777,88.113243 852.016174,83.977890 875.466187,80.101852 
	C893.767761,77.076805 912.251221,75.071701 930.702515,73.060089 
	C943.650208,71.648483 956.664124,70.567039 969.676147,70.081894 
	C995.562744,69.116714 1021.470032,68.107742 1047.365479,68.185898 
	C1066.196655,68.242729 1085.047119,69.692886 1103.843018,71.125610 
	C1119.098755,72.288483 1134.354248,73.888031 1149.487305,76.123489 
	C1170.423096,79.216164 1191.359985,82.521706 1212.083252,86.774948 
	C1235.510742,91.583214 1258.939941,96.703491 1281.932129,103.225853 
	C1307.153564,110.380592 1332.105469,118.661667 1356.750488,127.619682 
	C1379.086548,135.738419 1401.163696,144.744812 1422.779175,154.620163 
	C1443.863647,164.252869 1464.678223,174.680557 1484.781494,186.206375 
	C1511.828613,201.713242 1538.542969,217.909592 1564.524048,235.131561 
	C1584.634399,248.462036 1603.766724,263.361084 1622.655151,278.414459 
	C1639.806641,292.083588 1656.176392,306.750122 1672.633301,321.268738 
	C1683.085693,330.490234 1693.348389,339.965240 1703.187256,349.833893 
	C1714.551758,361.233063 1725.812988,372.797882 1736.298218,384.996429 
	C1752.084839,403.362793 1767.720825,421.913788 1782.386475,441.173859 
	C1798.996216,462.987152 1815.364380,485.091309 1830.177124,508.136169 
	C1845.174072,531.467529 1858.276978,556.026733 1871.963257,580.187561 
	C1889.044556,610.342102 1902.758789,642.116028 1915.484131,674.264648 
	C1928.761963,707.808716 1940.445190,741.942383 1949.084473,777.040100 
	C1950.140259,781.329712 1951.602051,785.519287 1952.926270,790.170593 
M1631.037354,991.973328 
	C1630.062988,979.528320 1629.343872,967.056519 1628.043823,954.645630 
	C1626.687622,941.698975 1625.676147,928.613403 1622.907715,915.939392 
	C1617.498047,891.172607 1612.205688,866.258423 1604.559448,842.135986 
	C1596.825684,817.737488 1586.805786,794.010254 1576.813354,770.401184 
	C1570.837402,756.281921 1563.424438,742.709656 1555.871582,729.335327 
	C1547.447632,714.419006 1538.540405,699.735840 1529.079834,685.457153 
	C1521.137207,673.469727 1512.146240,662.172852 1503.520142,650.644592 
	C1499.915649,645.827148 1496.202881,641.073792 1492.273438,636.520630 
	C1486.941040,630.341919 1481.348755,624.387634 1475.876221,618.329529 
	C1468.612305,610.288391 1461.522461,602.081482 1454.039673,594.249939 
	C1448.982178,588.956970 1443.493286,584.054504 1437.982178,579.222900 
	C1432.666016,574.562378 1427.020996,570.279541 1421.614258,565.719482 
	C1411.397827,557.102966 1401.624268,547.909180 1390.976074,539.870056 
	C1377.783203,529.909851 1364.101196,520.551697 1350.230713,511.549316 
	C1338.844604,504.159332 1327.038452,497.367737 1315.110107,490.877686 
	C1305.779175,485.800903 1295.962402,481.620331 1286.386108,476.990540 
	C1277.504761,472.696716 1268.872559,467.801147 1259.751953,464.105011 
	C1233.744019,453.565338 1207.330933,444.061646 1180.050171,437.353668 
	C1163.697632,433.332764 1147.155762,430.005035 1130.591675,426.946991 
	C1118.767700,424.764038 1106.796753,423.253052 1094.834229,421.980469 
	C1082.292847,420.646301 1069.682983,419.954529 1056.664307,418.212708 
	C1046.121338,418.213745 1035.578491,418.214813 1024.106812,418.048920 
	C1007.889893,418.695984 991.631470,418.828247 975.467590,420.132599 
	C958.776123,421.479553 942.141724,423.714630 925.544495,426.009979 
	C897.077026,429.946869 869.280884,436.990906 841.932129,445.650085 
	C807.428650,456.574615 774.040222,470.253510 742.085571,487.381042 
	C720.793274,498.793640 700.157959,511.179810 680.187866,524.816589 
	C652.933838,543.427185 627.544556,564.293396 603.770996,587.039734 
	C589.786438,600.419983 576.573425,614.742920 564.177734,629.612488 
	C549.456177,647.272095 535.399902,665.559875 522.115234,684.325745 
	C504.148041,709.706238 488.663239,736.669006 476.053131,765.136230 
	C467.422607,784.619507 458.530731,804.092285 451.651154,824.217712 
	C443.987091,846.638184 437.760223,869.622986 432.251373,892.683167 
	C428.070099,910.186035 425.788086,928.160278 423.062408,945.986145 
	C421.597656,955.565552 420.587463,965.253235 420.065155,974.929443 
	C419.164490,991.616333 418.804535,1008.332397 418.100647,1025.963257 
	C418.047424,1034.871582 417.945953,1043.780029 417.988617,1052.687866 
	C417.995728,1054.171997 418.630035,1055.653076 418.965668,1058.053589 
	C419.255402,1066.147461 419.097900,1074.288208 419.939423,1082.324219 
	C421.210754,1094.464966 422.869324,1106.585449 424.927765,1118.618164 
	C427.578705,1134.114258 429.961243,1149.731689 433.947571,1164.906128 
	C440.052124,1188.143677 446.723419,1211.286499 454.450806,1234.029053 
	C463.077209,1259.417480 473.839294,1284.020386 486.919342,1307.499878 
	C495.743469,1323.339722 504.320190,1339.367920 514.105835,1354.606567 
	C523.014954,1368.480225 533.254089,1381.516724 543.191467,1394.707886 
	C550.829712,1404.847168 558.625488,1414.897461 566.884949,1424.529663 
	C573.329956,1432.045776 580.549805,1438.903320 587.505188,1445.974976 
	C604.860229,1463.619873 622.126343,1481.385254 641.781494,1496.538208 
	C655.771057,1507.323242 669.532471,1518.533813 684.331665,1528.107666 
	C704.839233,1541.374512 725.848816,1553.983643 747.356567,1565.547729 
	C763.991882,1574.492065 781.364990,1582.353149 799.052856,1588.980225 
	C822.886780,1597.909790 847.091248,1606.071411 871.590515,1612.945435 
	C898.886414,1620.604370 926.797119,1625.869141 955.161743,1628.113525 
	C968.067261,1629.134766 980.980835,1630.053955 994.316650,1631.798706 
	C1004.532654,1631.793945 1014.748596,1631.789185 1025.893311,1631.951050 
	C1049.076538,1632.362915 1072.166382,1631.184204 1095.151245,1628.032104 
	C1108.161133,1626.247803 1121.312134,1625.241943 1134.187500,1622.777344 
	C1167.814941,1616.340820 1200.949463,1607.886108 1233.079590,1595.892456 
	C1258.590332,1586.369873 1283.910522,1576.293457 1307.555298,1562.672241 
	C1328.728149,1550.474976 1350.214478,1538.589478 1370.185669,1524.600708 
	C1392.101074,1509.250244 1412.854492,1492.139771 1433.310791,1474.845825 
	C1445.406494,1464.620117 1456.407959,1452.972656 1467.072388,1441.212646 
	C1481.120239,1425.721680 1494.777222,1409.831299 1507.843384,1393.505371 
	C1530.484009,1365.216553 1549.208252,1334.295898 1565.854004,1302.201904 
	C1578.928101,1276.994263 1589.903931,1250.794067 1599.098022,1223.882446 
	C1607.257935,1199.997437 1614.429077,1175.836426 1619.045288,1150.998535 
	C1621.945801,1135.392700 1624.623779,1119.735962 1626.930664,1104.032715 
	C1628.412109,1093.949219 1629.402588,1083.759888 1629.963379,1073.582153 
	C1630.855103,1057.392090 1631.204468,1041.171997 1631.900757,1024.037598 
	C1631.953247,1015.143860 1632.054688,1006.249878 1632.010498,997.356628 
	C1632.003174,995.867188 1631.365112,994.380920 1631.037354,991.973328 
M292.502136,511.998749 
	C308.591980,527.090027 324.673767,542.189880 340.774567,557.269409 
	C350.711090,566.575562 360.709503,575.815857 370.621887,585.147644 
	C388.636200,602.106750 406.636993,619.080566 424.583984,636.110901 
	C433.989075,645.035583 443.231567,654.131592 452.633148,663.060059 
	C454.621826,664.948608 456.983948,666.443848 459.349365,668.254517 
	C464.581635,662.299805 469.472778,656.507874 474.604309,650.937317 
	C487.723480,636.695801 500.897919,622.504211 514.148254,608.384644 
	C526.413513,595.314758 538.788513,582.347656 551.146606,569.365295 
	C565.110840,554.695557 579.058472,540.009460 593.111023,525.424622 
	C603.874817,514.253113 612.572327,501.593018 618.065918,487.196198 
	C621.235474,478.890015 623.516785,469.717560 623.636719,460.900146 
	C623.811279,448.071075 618.967346,436.299805 611.384583,425.624115 
	C596.149475,404.174835 575.387512,396.460876 549.919067,399.957855 
	C544.185242,400.745148 538.549622,402.248444 532.792297,403.437958 
	C532.859070,402.638123 532.880188,401.682648 533.025696,400.746521 
	C536.718567,376.990509 531.025452,356.652435 511.662354,341.105652 
	C492.266296,325.532349 470.706146,324.702148 448.229309,332.046783 
	C431.365936,337.557159 418.129730,349.089020 405.721680,361.081879 
	C389.744049,376.524933 374.582031,392.835571 359.476471,409.150085 
	C346.219421,423.468140 333.356628,438.162323 320.631500,452.958557 
	C309.022491,466.457062 297.750519,480.248993 286.492310,494.044037 
	C281.108215,500.641327 281.278229,500.780396 287.404266,506.905762 
	C288.936218,508.437531 290.469452,509.967987 292.502136,511.998749 
M870.991760,297.227173 
	C870.662964,299.168915 870.126038,301.101532 870.040833,303.053925 
	C869.628784,312.495331 869.273315,321.940338 869.019836,331.387329 
	C868.627747,345.996918 868.325378,360.608948 868.008545,375.220459 
	C867.948975,377.966675 868.000000,380.715271 868.000000,383.351440 
	C887.810974,380.741882 908.100952,378.069244 928.583191,375.371277 
	C929.049194,368.605896 929.612732,361.708374 929.976990,354.800385 
	C930.404419,346.694153 930.693726,338.580017 930.980957,330.467102 
	C931.673340,310.912476 932.413208,291.358978 932.974304,271.800446 
	C933.436462,255.689560 933.572144,239.569229 934.051941,223.459030 
	C934.241333,217.102219 934.971313,210.761536 935.454407,204.422821 
	C939.499634,213.325546 943.568359,222.248459 947.610596,231.183350 
	C954.057068,245.432327 960.507202,259.679688 966.917053,273.945190 
	C975.277588,292.552277 983.650940,311.154022 991.880005,329.819275 
	C993.005798,332.372833 994.467896,333.078400 997.129517,333.056488 
	C1011.961060,332.934174 1026.795654,332.885345 1041.625488,333.086304 
	C1044.858765,333.130127 1046.268188,331.856812 1047.463135,329.148224 
	C1053.429810,315.623657 1059.520508,302.153534 1065.611084,288.683929 
	C1070.355469,278.191284 1075.238525,267.760895 1079.926392,257.243347 
	C1087.781006,239.621262 1095.529297,221.951797 1103.515503,203.864655 
	C1104.032349,212.614731 1104.584839,220.799835 1104.980713,228.992493 
	C1105.396240,237.593964 1105.687500,246.201782 1105.986938,254.808441 
	C1106.672729,274.529297 1107.409546,294.248901 1107.975098,313.973297 
	C1108.432007,329.908600 1108.583618,345.852722 1109.057373,361.787384 
	C1109.193359,366.357819 1109.979004,370.908936 1110.459229,375.397278 
	C1130.579956,378.039307 1150.590454,380.666870 1170.764526,383.315918 
	C1170.840820,382.206482 1171.025879,381.053802 1170.983154,379.909607 
	C1170.346069,362.855865 1169.653687,345.804199 1169.025391,328.750153 
	C1168.323486,309.693085 1167.685669,290.633636 1166.994141,271.576172 
	C1166.699829,263.467712 1166.312012,255.362656 1166.014526,247.254303 
	C1165.327271,228.528061 1164.588623,209.803177 1164.025269,191.073090 
	C1163.565796,175.796158 1163.409302,160.510025 1162.940063,145.233459 
	C1162.819946,141.323669 1162.024658,137.434616 1161.464478,132.932281 
	C1133.224243,130.778030 1104.956421,128.621658 1076.821899,126.475456 
	C1057.220581,174.986343 1037.920532,222.751541 1019.005310,269.564545 
	C1018.608398,268.053345 1018.161865,265.120819 1017.080872,262.444611 
	C1011.539246,248.725906 1005.756104,235.104874 1000.202759,221.390823 
	C988.432373,192.323669 976.788818,163.205154 965.010071,134.141418 
	C961.960999,126.617935 960.381531,126.221657 952.478943,126.986343 
	C936.219971,128.559631 919.916992,129.675369 903.634155,131.004333 
	C894.945312,131.713516 886.260681,132.474747 877.417725,133.225754 
	C876.920959,136.001846 876.160461,138.552704 876.052002,141.130981 
	C875.292847,159.179779 874.669739,177.234314 874.000671,195.286911 
	C873.337769,213.175522 872.575256,231.061111 872.036255,248.953445 
	C871.561218,264.722321 871.334473,280.498627 870.991760,297.227173 
M1628.974731,411.522583 
	C1625.704712,408.206146 1622.528809,404.789856 1619.144897,401.594086 
	C1612.138184,394.977234 1611.715332,394.960358 1605.579468,398.037323 
	C1570.184326,415.787354 1534.780640,433.520477 1499.373535,451.246521 
	C1497.986694,451.940857 1496.534424,452.504608 1495.112671,453.129242 
	C1494.831055,452.802917 1494.549316,452.476562 1494.267700,452.150238 
	C1523.417969,408.392365 1552.568359,364.634491 1581.967529,320.503052 
	C1565.151733,306.997284 1548.865845,293.917175 1532.402832,280.694855 
	C1529.499268,285.281586 1527.163208,289.039490 1524.760986,292.754730 
	C1514.874023,308.045959 1504.884277,323.271454 1495.085205,338.618652 
	C1475.919312,368.636505 1456.877441,398.733490 1437.741821,428.770630 
	C1425.932495,447.307495 1414.071533,465.811646 1402.155640,484.280060 
	C1400.736206,486.479950 1400.669067,487.704865 1402.916138,489.584503 
	C1418.865356,502.925415 1434.657837,516.454102 1450.489258,529.935730 
	C1452.589478,531.724304 1454.484863,531.902283 1457.118896,530.513306 
	C1475.762207,520.682312 1494.489868,511.010101 1513.232910,501.369568 
	C1530.526367,492.474670 1547.883789,483.704224 1565.188110,474.830627 
	C1569.945312,472.391083 1574.613525,469.777954 1580.315308,466.710388 
	C1572.271362,482.310394 1564.893066,496.778870 1557.371094,511.172211 
	C1543.780029,537.179565 1530.065308,563.122498 1516.558472,589.173340 
	C1515.771118,590.691650 1515.565063,593.568604 1516.473511,594.728943 
	C1520.844971,600.312683 1525.772583,605.455994 1530.353638,610.881653 
	C1539.612183,621.846924 1548.902588,632.790710 1557.877563,643.985779 
	C1559.897583,646.505554 1560.869507,646.813110 1563.616821,645.046326 
	C1584.066895,631.894897 1604.639526,618.933655 1625.202515,605.958496 
	C1650.740967,589.844055 1676.293823,573.752380 1701.865479,557.690674 
	C1721.904053,545.104492 1741.990845,532.595215 1762.025635,520.002930 
	C1764.184937,518.645630 1766.140137,516.963440 1768.289185,515.357788 
	C1764.279419,510.254517 1760.713989,505.556885 1756.980347,500.996887 
	C1748.313965,490.412994 1739.526245,479.928375 1730.881348,469.327118 
	C1728.840332,466.824249 1727.127808,467.101685 1724.638306,468.757019 
	C1702.073120,483.760529 1679.437256,498.657990 1656.809814,513.567932 
	C1637.463257,526.315979 1618.104248,539.045227 1598.731934,551.754333 
	C1597.907715,552.295105 1596.894775,552.548401 1594.864380,553.398254 
	C1598.426758,546.212463 1601.385010,540.155762 1604.420044,534.137756 
	C1620.080444,503.085724 1635.722656,472.024323 1651.490112,441.026672 
	C1653.145874,437.771545 1653.358643,435.519958 1650.421143,432.764893 
	C1643.256958,426.045349 1636.433960,418.961945 1628.974731,411.522583 
z"/>
<path fill="#0166B1" opacity="1.000000" stroke="none" 
	d="
M1631.783203,1024.964600 
	C1631.204468,1041.171997 1630.855103,1057.392090 1629.963379,1073.582153 
	C1629.402588,1083.759888 1628.412109,1093.949219 1626.930664,1104.032715 
	C1624.623779,1119.735962 1621.945801,1135.392700 1619.045288,1150.998535 
	C1614.429077,1175.836426 1607.257935,1199.997437 1599.098022,1223.882446 
	C1589.903931,1250.794067 1578.928101,1276.994263 1565.854004,1302.201904 
	C1549.208252,1334.295898 1530.484009,1365.216553 1507.843384,1393.505371 
	C1494.777222,1409.831299 1481.120239,1425.721680 1467.072388,1441.212646 
	C1456.407959,1452.972656 1445.406494,1464.620117 1433.310791,1474.845825 
	C1412.854492,1492.139771 1392.101074,1509.250244 1370.185669,1524.600708 
	C1350.214478,1538.589478 1328.728149,1550.474976 1307.555298,1562.672241 
	C1283.910522,1576.293457 1258.590332,1586.369873 1233.079590,1595.892456 
	C1200.949463,1607.886108 1167.814941,1616.340820 1134.187500,1622.777344 
	C1121.312134,1625.241943 1108.161133,1626.247803 1095.151245,1628.032104 
	C1072.166382,1631.184204 1049.076538,1632.362915 1025.396118,1631.737061 
	C1024.898926,1631.523071 1024.812256,1631.267944 1024.869629,1630.785400 
	C1024.904297,1619.697388 1024.881714,1609.091919 1024.920166,1597.981201 
	C1024.987671,1408.774292 1024.993530,1220.072632 1025.005127,1031.370850 
	C1025.005249,1029.207642 1025.079224,1027.044312 1025.059448,1024.940552 
	C1025.000000,1025.000000 1024.881104,1025.118896 1025.354980,1025.067261 
	C1214.545044,1025.010376 1403.261475,1025.005737 1591.977783,1024.994141 
	C1594.140503,1024.993896 1596.303223,1024.904297 1598.902832,1024.905518 
	C1609.984497,1024.907104 1620.629028,1024.859863 1631.399658,1024.855225 
	C1631.525757,1024.897705 1631.783203,1024.964600 1631.783203,1024.964600 
z"/>
<path fill="#0166B1" opacity="1.000000" stroke="none" 
	d="
M418.217651,1025.036255 
	C418.804535,1008.332397 419.164490,991.616333 420.065155,974.929443 
	C420.587463,965.253235 421.597656,955.565552 423.062408,945.986145 
	C425.788086,928.160278 428.070099,910.186035 432.251373,892.683167 
	C437.760223,869.622986 443.987091,846.638184 451.651154,824.217712 
	C458.530731,804.092285 467.422607,784.619507 476.053131,765.136230 
	C488.663239,736.669006 504.148041,709.706238 522.115234,684.325745 
	C535.399902,665.559875 549.456177,647.272095 564.177734,629.612488 
	C576.573425,614.742920 589.786438,600.419983 603.770996,587.039734 
	C627.544556,564.293396 652.933838,543.427185 680.187866,524.816589 
	C700.157959,511.179810 720.793274,498.793640 742.085571,487.381042 
	C774.040222,470.253510 807.428650,456.574615 841.932129,445.650085 
	C869.280884,436.990906 897.077026,429.946869 925.544495,426.009979 
	C942.141724,423.714630 958.776123,421.479553 975.467590,420.132599 
	C991.631470,418.828247 1007.889893,418.695984 1024.604248,418.262573 
	C1025.101562,418.476196 1025.187988,418.730408 1025.130615,419.213013 
	C1025.095703,430.302063 1025.118408,440.908508 1025.079834,452.020020 
	C1025.012451,641.226440 1025.006714,829.927795 1024.995117,1018.629150 
	C1024.994995,1020.792419 1024.920654,1022.955627 1024.881104,1025.118896 
	C1024.881104,1025.118896 1025.000000,1025.000000 1024.585693,1024.992188 
	C835.452698,1024.989624 646.734009,1024.994263 458.015320,1025.005737 
	C455.852539,1025.005859 453.689758,1025.095093 451.090454,1025.094116 
	C440.009888,1025.093018 429.365845,1025.140625 418.596985,1025.145996 
	C418.472198,1025.104004 418.217651,1025.036255 418.217651,1025.036255 
z"/>
<path fill="#6F6F6F" opacity="1.000000" stroke="none" 
	d="
M292.252106,511.748901 
	C290.469452,509.967987 288.936218,508.437531 287.404266,506.905762 
	C281.278229,500.780396 281.108215,500.641327 286.492310,494.044037 
	C297.750519,480.248993 309.022491,466.457062 320.631500,452.958557 
	C333.356628,438.162323 346.219421,423.468140 359.476471,409.150085 
	C374.582031,392.835571 389.744049,376.524933 405.721680,361.081879 
	C418.129730,349.089020 431.365936,337.557159 448.229309,332.046783 
	C470.706146,324.702148 492.266296,325.532349 511.662354,341.105652 
	C531.025452,356.652435 536.718567,376.990509 533.025696,400.746521 
	C532.880188,401.682648 532.859070,402.638123 532.792297,403.437958 
	C538.549622,402.248444 544.185242,400.745148 549.919067,399.957855 
	C575.387512,396.460876 596.149475,404.174835 611.384583,425.624115 
	C618.967346,436.299805 623.811279,448.071075 623.636719,460.900146 
	C623.516785,469.717560 621.235474,478.890015 618.065918,487.196198 
	C612.572327,501.593018 603.874817,514.253113 593.111023,525.424622 
	C579.058472,540.009460 565.110840,554.695557 551.146606,569.365295 
	C538.788513,582.347656 526.413513,595.314758 514.148254,608.384644 
	C500.897919,622.504211 487.723480,636.695801 474.604309,650.937317 
	C469.472778,656.507874 464.581635,662.299805 459.349365,668.254517 
	C456.983948,666.443848 454.621826,664.948608 452.633148,663.060059 
	C443.231567,654.131592 433.989075,645.035583 424.583984,636.110901 
	C406.636993,619.080566 388.636200,602.106750 370.621887,585.147644 
	C360.709503,575.815857 350.711090,566.575562 340.774567,557.269409 
	C324.673767,542.189880 308.591980,527.090027 292.252106,511.748901 
M468.993683,580.505920 
	C473.288177,575.886902 477.550934,571.237854 481.882812,566.654114 
	C499.679352,547.822693 517.495667,529.009949 535.307495,510.192963 
	C541.356628,503.802460 547.768921,497.713654 553.367920,490.951019 
	C558.960571,484.196014 564.802612,477.615631 567.289001,468.622528 
	C571.252380,454.287292 559.202148,440.762177 544.725037,442.850616 
	C536.950745,443.972137 530.750488,447.737244 525.521057,453.081726 
	C507.992432,470.995819 490.678925,489.120392 473.273468,507.155090 
	C462.882324,517.921875 452.441162,528.640625 442.085724,539.441589 
	C437.052094,544.691711 432.163544,550.081055 426.970001,555.664612 
	C438.667755,566.584900 450.243988,577.391724 461.828796,588.206543 
	C464.283936,585.553650 466.386780,583.281433 468.993683,580.505920 
M473.004059,435.492920 
	C478.518311,427.947266 484.683716,420.782532 489.378265,412.757355 
	C494.970459,403.197723 492.386688,392.254517 483.677948,385.295502 
	C475.344513,378.636353 467.050140,377.675049 457.623993,385.313751 
	C445.366791,395.246704 433.994446,406.384918 423.007874,417.745789 
	C406.692474,434.617157 390.961700,452.058899 375.164001,469.423340 
	C369.115509,476.071716 363.567657,483.175568 357.583740,490.320068 
	C368.894226,500.927460 379.830200,511.183624 391.181152,521.828918 
	C398.152588,514.298157 404.514374,507.323547 410.990814,500.457062 
	C418.287323,492.721008 425.698090,485.092834 433.039642,477.399109 
	C446.202545,463.604980 459.350830,449.796875 473.004059,435.492920 
z"/>
<path fill="#6F6F6F" opacity="1.000000" stroke="none" 
	d="
M870.994873,296.749420 
	C871.334473,280.498627 871.561218,264.722321 872.036255,248.953445 
	C872.575256,231.061111 873.337769,213.175522 874.000671,195.286911 
	C874.669739,177.234314 875.292847,159.179779 876.052002,141.130981 
	C876.160461,138.552704 876.920959,136.001846 877.417725,133.225754 
	C886.260681,132.474747 894.945312,131.713516 903.634155,131.004333 
	C919.916992,129.675369 936.219971,128.559631 952.478943,126.986343 
	C960.381531,126.221657 961.960999,126.617935 965.010071,134.141418 
	C976.788818,163.205154 988.432373,192.323669 1000.202759,221.390823 
	C1005.756104,235.104874 1011.539246,248.725906 1017.080872,262.444611 
	C1018.161865,265.120819 1018.608398,268.053345 1019.005310,269.564545 
	C1037.920532,222.751541 1057.220581,174.986343 1076.821899,126.475456 
	C1104.956421,128.621658 1133.224243,130.778030 1161.464478,132.932281 
	C1162.024658,137.434616 1162.819946,141.323669 1162.940063,145.233459 
	C1163.409302,160.510025 1163.565796,175.796158 1164.025269,191.073090 
	C1164.588623,209.803177 1165.327271,228.528061 1166.014526,247.254303 
	C1166.312012,255.362656 1166.699829,263.467712 1166.994141,271.576172 
	C1167.685669,290.633636 1168.323486,309.693085 1169.025391,328.750153 
	C1169.653687,345.804199 1170.346069,362.855865 1170.983154,379.909607 
	C1171.025879,381.053802 1170.840820,382.206482 1170.764526,383.315918 
	C1150.590454,380.666870 1130.579956,378.039307 1110.459229,375.397278 
	C1109.979004,370.908936 1109.193359,366.357819 1109.057373,361.787384 
	C1108.583618,345.852722 1108.432007,329.908600 1107.975098,313.973297 
	C1107.409546,294.248901 1106.672729,274.529297 1105.986938,254.808441 
	C1105.687500,246.201782 1105.396240,237.593964 1104.980713,228.992493 
	C1104.584839,220.799835 1104.032349,212.614731 1103.515503,203.864655 
	C1095.529297,221.951797 1087.781006,239.621262 1079.926392,257.243347 
	C1075.238525,267.760895 1070.355469,278.191284 1065.611084,288.683929 
	C1059.520508,302.153534 1053.429810,315.623657 1047.463135,329.148224 
	C1046.268188,331.856812 1044.858765,333.130127 1041.625488,333.086304 
	C1026.795654,332.885345 1011.961060,332.934174 997.129517,333.056488 
	C994.467896,333.078400 993.005798,332.372833 991.880005,329.819275 
	C983.650940,311.154022 975.277588,292.552277 966.917053,273.945190 
	C960.507202,259.679688 954.057068,245.432327 947.610596,231.183350 
	C943.568359,222.248459 939.499634,213.325546 935.454407,204.422821 
	C934.971313,210.761536 934.241333,217.102219 934.051941,223.459030 
	C933.572144,239.569229 933.436462,255.689560 932.974304,271.800446 
	C932.413208,291.358978 931.673340,310.912476 930.980957,330.467102 
	C930.693726,338.580017 930.404419,346.694153 929.976990,354.800385 
	C929.612732,361.708374 929.049194,368.605896 928.583191,375.371277 
	C908.100952,378.069244 887.810974,380.741882 868.000000,383.351440 
	C868.000000,380.715271 867.948975,377.966675 868.008545,375.220459 
	C868.325378,360.608948 868.627747,345.996918 869.019836,331.387329 
	C869.273315,321.940338 869.628784,312.495331 870.040833,303.053925 
	C870.126038,301.101532 870.662964,299.168915 870.994873,296.749420 
z"/>
<path fill="#6F6F6F" opacity="1.000000" stroke="none" 
	d="
M1629.224121,411.773865 
	C1636.433960,418.961945 1643.256958,426.045349 1650.421143,432.764893 
	C1653.358643,435.519958 1653.145874,437.771545 1651.490112,441.026672 
	C1635.722656,472.024323 1620.080444,503.085724 1604.420044,534.137756 
	C1601.385010,540.155762 1598.426758,546.212463 1594.864380,553.398254 
	C1596.894775,552.548401 1597.907715,552.295105 1598.731934,551.754333 
	C1618.104248,539.045227 1637.463257,526.315979 1656.809814,513.567932 
	C1679.437256,498.657990 1702.073120,483.760529 1724.638306,468.757019 
	C1727.127808,467.101685 1728.840332,466.824249 1730.881348,469.327118 
	C1739.526245,479.928375 1748.313965,490.412994 1756.980347,500.996887 
	C1760.713989,505.556885 1764.279419,510.254517 1768.289185,515.357788 
	C1766.140137,516.963440 1764.184937,518.645630 1762.025635,520.002930 
	C1741.990845,532.595215 1721.904053,545.104492 1701.865479,557.690674 
	C1676.293823,573.752380 1650.740967,589.844055 1625.202515,605.958496 
	C1604.639526,618.933655 1584.066895,631.894897 1563.616821,645.046326 
	C1560.869507,646.813110 1559.897583,646.505554 1557.877563,643.985779 
	C1548.902588,632.790710 1539.612183,621.846924 1530.353638,610.881653 
	C1525.772583,605.455994 1520.844971,600.312683 1516.473511,594.728943 
	C1515.565063,593.568604 1515.771118,590.691650 1516.558472,589.173340 
	C1530.065308,563.122498 1543.780029,537.179565 1557.371094,511.172211 
	C1564.893066,496.778870 1572.271362,482.310394 1580.315308,466.710388 
	C1574.613525,469.777954 1569.945312,472.391083 1565.188110,474.830627 
	C1547.883789,483.704224 1530.526367,492.474670 1513.232910,501.369568 
	C1494.489868,511.010101 1475.762207,520.682312 1457.118896,530.513306 
	C1454.484863,531.902283 1452.589478,531.724304 1450.489258,529.935730 
	C1434.657837,516.454102 1418.865356,502.925415 1402.916138,489.584503 
	C1400.669067,487.704865 1400.736206,486.479950 1402.155640,484.280060 
	C1414.071533,465.811646 1425.932495,447.307495 1437.741821,428.770630 
	C1456.877441,398.733490 1475.919312,368.636505 1495.085205,338.618652 
	C1504.884277,323.271454 1514.874023,308.045959 1524.760986,292.754730 
	C1527.163208,289.039490 1529.499268,285.281586 1532.402832,280.694855 
	C1548.865845,293.917175 1565.151733,306.997284 1581.967529,320.503052 
	C1552.568359,364.634491 1523.417969,408.392365 1494.267700,452.150238 
	C1494.549316,452.476562 1494.831055,452.802917 1495.112671,453.129242 
	C1496.534424,452.504608 1497.986694,451.940857 1499.373535,451.246521 
	C1534.780640,433.520477 1570.184326,415.787354 1605.579468,398.037323 
	C1611.715332,394.960358 1612.138184,394.977234 1619.144897,401.594086 
	C1622.528809,404.789856 1625.704712,408.206146 1629.224121,411.773865 
M1594.259888,554.027222 
	C1594.642456,553.847107 1595.024902,553.666931 1595.407471,553.486816 
	C1595.045654,553.464661 1594.683960,553.442566 1594.259888,554.027222 
M1493.587891,453.586945 
	C1493.360474,453.953033 1493.133057,454.319092 1492.905640,454.685150 
	C1493.221436,454.507568 1493.537231,454.329987 1493.587891,453.586945 
z"/>
<path fill="#717171" opacity="1.000000" stroke="none" 
	d="
M418.721741,1025.188110 
	C429.365845,1025.140625 440.009888,1025.093018 451.073181,1025.550049 
	C451.679535,1088.514526 461.506653,1149.398560 481.626099,1208.551392 
	C560.907837,1441.646606 778.668518,1597.926636 1024.859009,1598.486328 
	C1024.881714,1609.091919 1024.904297,1619.697388 1024.412598,1630.765381 
	C1013.895813,1631.158325 1003.893250,1631.088867 993.890747,1631.019287 
	C980.980835,1630.053955 968.067261,1629.134766 955.161743,1628.113525 
	C926.797119,1625.869141 898.886414,1620.604370 871.590515,1612.945435 
	C847.091248,1606.071411 822.886780,1597.909790 799.052856,1588.980225 
	C781.364990,1582.353149 763.991882,1574.492065 747.356567,1565.547729 
	C725.848816,1553.983643 704.839233,1541.374512 684.331665,1528.107666 
	C669.532471,1518.533813 655.771057,1507.323242 641.781494,1496.538208 
	C622.126343,1481.385254 604.860229,1463.619873 587.505188,1445.974976 
	C580.549805,1438.903320 573.329956,1432.045776 566.884949,1424.529663 
	C558.625488,1414.897461 550.829712,1404.847168 543.191467,1394.707886 
	C533.254089,1381.516724 523.014954,1368.480225 514.105835,1354.606567 
	C504.320190,1339.367920 495.743469,1323.339722 486.919342,1307.499878 
	C473.839294,1284.020386 463.077209,1259.417480 454.450806,1234.029053 
	C446.723419,1211.286499 440.052124,1188.143677 433.947571,1164.906128 
	C429.961243,1149.731689 427.578705,1134.114258 424.927765,1118.618164 
	C422.869324,1106.585449 421.210754,1094.464966 419.939423,1082.324219 
	C419.097900,1074.288208 419.255402,1066.147461 419.021606,1057.119629 
	C418.958954,1045.853149 418.840363,1035.520630 418.721741,1025.188110 
z"/>
<path fill="#717171" opacity="1.000000" stroke="none" 
	d="
M1025.141113,451.514984 
	C1025.118408,440.908508 1025.095703,430.302063 1025.587524,419.232788 
	C1036.435669,418.840698 1046.769409,418.911346 1057.103149,418.981995 
	C1069.682983,419.954529 1082.292847,420.646301 1094.834229,421.980469 
	C1106.796753,423.253052 1118.767700,424.764038 1130.591675,426.946991 
	C1147.155762,430.005035 1163.697632,433.332764 1180.050171,437.353668 
	C1207.330933,444.061646 1233.744019,453.565338 1259.751953,464.105011 
	C1268.872559,467.801147 1277.504761,472.696716 1286.386108,476.990540 
	C1295.962402,481.620331 1305.779175,485.800903 1315.110107,490.877686 
	C1327.038452,497.367737 1338.844604,504.159332 1350.230713,511.549316 
	C1364.101196,520.551697 1377.783203,529.909851 1390.976074,539.870056 
	C1401.624268,547.909180 1411.397827,557.102966 1421.614258,565.719482 
	C1427.020996,570.279541 1432.666016,574.562378 1437.982178,579.222900 
	C1443.493286,584.054504 1448.982178,588.956970 1454.039673,594.249939 
	C1461.522461,602.081482 1468.612305,610.288391 1475.876221,618.329529 
	C1481.348755,624.387634 1486.941040,630.341919 1492.273438,636.520630 
	C1496.202881,641.073792 1499.915649,645.827148 1503.520142,650.644592 
	C1512.146240,662.172852 1521.137207,673.469727 1529.079834,685.457153 
	C1538.540405,699.735840 1547.447632,714.419006 1555.871582,729.335327 
	C1563.424438,742.709656 1570.837402,756.281921 1576.813354,770.401184 
	C1586.805786,794.010254 1596.825684,817.737488 1604.559448,842.135986 
	C1612.205688,866.258423 1617.498047,891.172607 1622.907715,915.939392 
	C1625.676147,928.613403 1626.687622,941.698975 1628.043823,954.645630 
	C1629.343872,967.056519 1630.062988,979.528320 1630.991699,992.907654 
	C1631.055176,1004.165527 1631.164429,1014.489075 1631.273682,1024.812622 
	C1620.629028,1024.859863 1609.984497,1024.907104 1598.919312,1024.449463 
	C1598.425537,985.176697 1594.717651,946.748352 1586.691772,908.829834 
	C1563.360962,798.603210 1512.744751,702.612488 1433.191284,622.863403 
	C1320.807251,510.203094 1184.414185,453.248993 1025.141113,451.514984 
z"/>
<path fill="#9B9B9B" opacity="1.000000" stroke="none" 
	d="
M1056.883789,418.597351 
	C1046.769409,418.911346 1036.435669,418.840698 1025.645020,418.750214 
	C1025.187988,418.730408 1025.101562,418.476196 1025.068604,418.346039 
	C1035.578491,418.214813 1046.121338,418.213745 1056.883789,418.597351 
z"/>
<path fill="#9C9C9C" opacity="1.000000" stroke="none" 
	d="
M1631.399658,1024.855225 
	C1631.164429,1014.489075 1631.055176,1004.165527 1630.982300,993.367615 
	C1631.365112,994.380920 1632.003174,995.867188 1632.010498,997.356628 
	C1632.054688,1006.249878 1631.953247,1015.143860 1631.842041,1024.501099 
	C1631.783203,1024.964600 1631.525757,1024.897705 1631.399658,1024.855225 
z"/>
<path fill="#9C9C9C" opacity="1.000000" stroke="none" 
	d="
M418.596985,1025.145996 
	C418.840363,1035.520630 418.958954,1045.853149 419.026031,1056.660645 
	C418.630035,1055.653076 417.995728,1054.171997 417.988617,1052.687866 
	C417.945953,1043.780029 418.047424,1034.871582 418.159149,1025.499756 
	C418.217651,1025.036255 418.472198,1025.104004 418.596985,1025.145996 
z"/>
<path fill="#9B9B9B" opacity="1.000000" stroke="none" 
	d="
M994.103699,1631.408936 
	C1003.893250,1631.088867 1013.895813,1631.158325 1024.355225,1631.247803 
	C1024.812256,1631.267944 1024.898926,1631.523071 1024.931763,1631.653809 
	C1014.748596,1631.789185 1004.532654,1631.793945 994.103699,1631.408936 
z"/>
<path fill="#FFFFFF" opacity="1.000000" stroke="none" 
	d="
M1025.079834,452.020020 
	C1184.414185,453.248993 1320.807251,510.203094 1433.191284,622.863403 
	C1512.744751,702.612488 1563.360962,798.603210 1586.691772,908.829834 
	C1594.717651,946.748352 1598.425537,985.176697 1598.482422,1024.400513 
	C1596.303223,1024.904297 1594.140503,1024.993896 1591.977783,1024.994141 
	C1403.261475,1025.005737 1214.545044,1025.010376 1025.354980,1025.067261 
	C1024.920654,1022.955627 1024.994995,1020.792419 1024.995117,1018.629150 
	C1025.006714,829.927795 1025.012451,641.226440 1025.079834,452.020020 
z"/>
<path fill="#FFFFFF" opacity="1.000000" stroke="none" 
	d="
M1024.920166,1597.981201 
	C778.668518,1597.926636 560.907837,1441.646606 481.626099,1208.551392 
	C461.506653,1149.398560 451.679535,1088.514526 451.509705,1025.598633 
	C453.689758,1025.095093 455.852539,1025.005859 458.015320,1025.005737 
	C646.734009,1024.994263 835.452698,1024.989624 1024.645142,1024.932739 
	C1025.079224,1027.044312 1025.005249,1029.207642 1025.005127,1031.370850 
	C1024.993530,1220.072632 1024.987671,1408.774292 1024.920166,1597.981201 
z"/>
<path fill="#000000" opacity="1.000000" stroke="none" 
	d="
M468.741638,580.757568 
	C466.386780,583.281433 464.283936,585.553650 461.828796,588.206543 
	C450.243988,577.391724 438.667755,566.584900 426.970001,555.664612 
	C432.163544,550.081055 437.052094,544.691711 442.085724,539.441589 
	C452.441162,528.640625 462.882324,517.921875 473.273468,507.155090 
	C490.678925,489.120392 507.992432,470.995819 525.521057,453.081726 
	C530.750488,447.737244 536.950745,443.972137 544.725037,442.850616 
	C559.202148,440.762177 571.252380,454.287292 567.289001,468.622528 
	C564.802612,477.615631 558.960571,484.196014 553.367920,490.951019 
	C547.768921,497.713654 541.356628,503.802460 535.307495,510.192963 
	C517.495667,529.009949 499.679352,547.822693 481.882812,566.654114 
	C477.550934,571.237854 473.288177,575.886902 468.741638,580.757568 
z"/>
<path fill="#000000" opacity="1.000000" stroke="none" 
	d="
M472.754639,435.743774 
	C459.350830,449.796875 446.202545,463.604980 433.039642,477.399109 
	C425.698090,485.092834 418.287323,492.721008 410.990814,500.457062 
	C404.514374,507.323547 398.152588,514.298157 391.181152,521.828918 
	C379.830200,511.183624 368.894226,500.927460 357.583740,490.320068 
	C363.567657,483.175568 369.115509,476.071716 375.164001,469.423340 
	C390.961700,452.058899 406.692474,434.617157 423.007874,417.745789 
	C433.994446,406.384918 445.366791,395.246704 457.623993,385.313751 
	C467.050140,377.675049 475.344513,378.636353 483.677948,385.295502 
	C492.386688,392.254517 494.970459,403.197723 489.378265,412.757355 
	C484.683716,420.782532 478.518311,427.947266 472.754639,435.743774 
z"/>
<path fill="#000000" opacity="1.000000" stroke="none" 
	d="
M1594.291016,553.723877 
	C1594.683960,553.442566 1595.045654,553.464661 1595.407471,553.486816 
	C1595.024902,553.666931 1594.642456,553.847107 1594.291016,553.723877 
z"/>
<path fill="#000000" opacity="1.000000" stroke="none" 
	d="
M1493.720459,453.869690 
	C1493.537231,454.329987 1493.221436,454.507568 1492.905640,454.685181 
	C1493.133057,454.319092 1493.360474,453.953033 1493.720459,453.869690 
z"/>
</svg>